<svg width="23" height="23" viewBox="0 0 23 23" fill="none" xmlns="http://www.w3.org/2000/svg">
<path d="M4.33125 16.9875C5.2875 16.2563 6.35625 15.6797 7.5375 15.2578C8.71875 14.8359 9.95625 14.625 11.25 14.625C12.5437 14.625 13.7812 14.8359 14.9625 15.2578C16.1438 15.6797 17.2125 16.2563 18.1687 16.9875C18.825 16.2188 19.3359 15.3469 19.7016 14.3719C20.0672 13.3969 20.25 12.3562 20.25 11.25C20.25 8.75625 19.3734 6.63281 17.6203 4.87969C15.8672 3.12656 13.7437 2.25 11.25 2.25C8.75625 2.25 6.63281 3.12656 4.87969 4.87969C3.12656 6.63281 2.25 8.75625 2.25 11.25C2.25 12.3562 2.43281 13.3969 2.79844 14.3719C3.16406 15.3469 3.675 16.2188 4.33125 16.9875ZM8.45156 11.2359C7.69219 10.4766 7.3125 9.54375 7.3125 8.4375C7.3125 7.33125 7.69219 6.39844 8.45156 5.63906C9.21094 4.87969 10.1438 4.5 11.25 4.5C12.3562 4.5 13.2891 4.87969 14.0484 5.63906C14.8078 6.39844 15.1875 7.33125 15.1875 8.4375C15.1875 9.54375 14.8078 10.4766 14.0484 11.2359C13.2891 11.9953 12.3562 12.375 11.25 12.375C10.1438 12.375 9.21094 11.9953 8.45156 11.2359ZM11.25 22.5C9.69375 22.5 8.23125 22.2047 6.8625 21.6141C5.49375 21.0234 4.30312 20.2219 3.29062 19.2094C2.27812 18.1969 1.47656 17.0063 0.885938 15.6375C0.295312 14.2688 0 12.8062 0 11.25C0 9.69375 0.295312 8.23125 0.885938 6.8625C1.47656 5.49375 2.27812 4.30312 3.29062 3.29062C4.30312 2.27812 5.49375 1.47656 6.8625 0.885938C8.23125 0.295312 9.69375 0 11.25 0C12.8062 0 14.2688 0.295312 15.6375 0.885938C17.0063 1.47656 18.1969 2.27812 19.2094 3.29062C20.2219 4.30312 21.0234 5.49375 21.6141 6.8625C22.2047 8.23125 22.5 9.69375 22.5 11.25C22.5 12.8062 22.2047 14.2688 21.6141 15.6375C21.0234 17.0063 20.2219 18.1969 19.2094 19.2094C18.1969 20.2219 17.0063 21.0234 15.6375 21.6141C14.2688 22.2047 12.8062 22.5 11.25 22.5Z" fill="white"/>
</svg>
