<svg width="10" height="12" viewBox="0 0 10 12" fill="none" xmlns="http://www.w3.org/2000/svg">
<path d="M2.54598 11.5943C2.17284 11.5943 1.93425 11.1967 2.10985 10.8674L3.70293 7.88038C3.86601 7.57461 3.67198 7.2003 3.32811 7.15732L0.433764 6.79553C0.0207792 6.7439 -0.147412 6.23617 0.153079 5.9482L6.21651 0.137415C6.30853 0.0492309 6.43105 0 6.5585 0H6.69553C7.06867 0 7.30725 0.397638 7.13166 0.726879L5.53857 3.71391C5.37549 4.01969 5.56953 4.39399 5.91339 4.43698L8.80774 4.79877C9.22073 4.85039 9.38892 5.35812 9.08843 5.64609L3.025 11.4569C2.93298 11.5451 2.81046 11.5943 2.68301 11.5943H2.54598Z" fill="url(#paint0_linear_20170_318)"/>
<path d="M2.54598 11.5943C2.17284 11.5943 1.93425 11.1967 2.10985 10.8674L3.70293 7.88038C3.86601 7.57461 3.67198 7.2003 3.32811 7.15732L0.433764 6.79553C0.0207792 6.7439 -0.147412 6.23617 0.153079 5.9482L6.21651 0.137415C6.30853 0.0492309 6.43105 0 6.5585 0H6.69553C7.06867 0 7.30725 0.397638 7.13166 0.726879L5.53857 3.71391C5.37549 4.01969 5.56953 4.39399 5.91339 4.43698L8.80774 4.79877C9.22073 4.85039 9.38892 5.35812 9.08843 5.64609L3.025 11.4569C2.93298 11.5451 2.81046 11.5943 2.68301 11.5943H2.54598Z" fill="url(#paint1_linear_20170_318)"/>
<defs>
<linearGradient id="paint0_linear_20170_318" x1="-0.59668" y1="5.79715" x2="9.83819" y2="5.79715" gradientUnits="userSpaceOnUse">
<stop stop-color="#957932"/>
<stop offset="1" stop-color="#F8E84E"/>
</linearGradient>
<linearGradient id="paint1_linear_20170_318" x1="1.77488" y1="8.95923" x2="9.33551" y2="3.6719" gradientUnits="userSpaceOnUse">
<stop stop-color="#F6F6F6"/>
<stop offset="1" stop-color="#949494"/>
</linearGradient>
</defs>
</svg>
