<svg width="15" height="18" viewBox="0 0 15 18" fill="none" xmlns="http://www.w3.org/2000/svg">
<path d="M3.86279 17.5928C3.2966 17.5928 2.93459 16.9894 3.20103 16.4898L5.61832 11.9574C5.86577 11.4934 5.57135 10.9255 5.04958 10.8603L0.657798 10.3113C0.0311492 10.233 -0.224059 9.46255 0.231895 9.02559L9.43233 0.208509C9.57195 0.0747019 9.75787 0 9.95126 0H10.1592C10.7254 0 11.0874 0.603361 10.8209 1.10294L8.40365 5.63536C8.1562 6.09933 8.45062 6.66729 8.97239 6.73251L13.3642 7.28148C13.9908 7.35981 14.246 8.13023 13.7901 8.56718L4.58964 17.3843C4.45002 17.5181 4.26411 17.5928 4.07072 17.5928H3.86279Z" fill="url(#paint0_linear_20170_315)"/>
<defs>
<linearGradient id="paint0_linear_20170_315" x1="-0.905762" y1="8.79639" x2="14.9277" y2="8.79639" gradientUnits="userSpaceOnUse">
<stop stop-color="#957932"/>
<stop offset="1" stop-color="#F8E84E"/>
</linearGradient>
</defs>
</svg>
