<svg width="20" height="21" viewBox="0 0 20 21" fill="none" xmlns="http://www.w3.org/2000/svg">
<path d="M7.60785 15.4102C7.48132 15.4102 7.35997 15.4605 7.2705 15.55C7.18103 15.6394 7.13077 15.7608 7.13077 15.8873C7.13077 16.0139 7.18103 16.1352 7.2705 16.2247C7.35997 16.3141 7.48132 16.3644 7.60785 16.3644H12.3787C12.5053 16.3644 12.6266 16.3141 12.7161 16.2247C12.8056 16.1352 12.8558 16.0139 12.8558 15.8873C12.8558 15.7608 12.8056 15.6394 12.7161 15.55C12.6266 15.4605 12.5053 15.4102 12.3787 15.4102H7.60785Z" fill="#1C1B1F"/>
<path d="M6.67924 15.8873C6.67924 15.641 6.7766 15.4045 6.95079 15.2303C7.12499 15.0561 7.36151 14.9587 7.60785 14.9587V15.4102C7.48132 15.4102 7.35997 15.4605 7.2705 15.55C7.18103 15.6394 7.13077 15.7608 7.13077 15.8873C7.13077 16.0139 7.18103 16.1352 7.2705 16.2247C7.35997 16.3141 7.48132 16.3644 7.60785 16.3644H12.3787C12.4737 16.3644 12.5661 16.3365 12.6439 16.2845L12.7161 16.2247C12.8056 16.1352 12.8558 16.0139 12.8558 15.8873C12.8558 15.7923 12.8279 15.7 12.776 15.6222L12.7161 15.55C12.6266 15.4605 12.5053 15.4102 12.3787 15.4102V14.9587C12.6251 14.9587 12.8616 15.0561 13.0358 15.2303C13.21 15.4045 13.3074 15.641 13.3074 15.8873C13.3074 16.1337 13.21 16.3702 13.0358 16.5444C12.8616 16.7186 12.6251 16.8159 12.3787 16.8159H7.60785C7.36151 16.8159 7.12499 16.7186 6.95079 16.5444C6.7766 16.3702 6.67924 16.1337 6.67924 15.8873ZM12.3787 14.9587V15.4102H7.60785V14.9587H12.3787Z" fill="#1C1B1F"/>
<path fill-rule="evenodd" clip-rule="evenodd" d="M12.0629 1.17012C11.4735 0.70469 10.7443 0.45153 9.9933 0.45153C9.24225 0.45153 8.51313 0.70469 7.92369 1.17012L1.72154 6.06696C1.32564 6.37957 1.00569 6.77781 0.785735 7.23177C0.565776 7.68574 0.451515 8.18363 0.45153 8.68808V16.3654C0.45153 17.2511 0.803382 18.1006 1.42968 18.7269C2.05598 19.3532 2.90543 19.705 3.79115 19.705H16.1954C17.0812 19.705 17.9306 19.3532 18.5569 18.7269C19.1832 18.1006 19.5351 17.2511 19.5351 16.3654V8.68808C19.5351 8.18363 19.4208 7.68574 19.2009 7.23177C18.9809 6.77781 18.661 6.37957 18.2651 6.06696L12.0629 1.17012ZM8.51528 1.91915C8.93626 1.58683 9.45695 1.40609 9.9933 1.40609C10.5296 1.40609 11.0503 1.58683 11.4713 1.91915L17.6735 6.81599C17.9563 7.03924 18.1849 7.32366 18.342 7.6479C18.4992 7.97214 18.5808 8.32776 18.5809 8.68808V16.3654C18.5809 16.998 18.3296 17.6048 17.8822 18.0521C17.4349 18.4995 16.8281 18.7508 16.1954 18.7508H3.79115C3.15849 18.7508 2.55174 18.4995 2.10439 18.0521C1.65703 17.6048 1.40571 16.998 1.40571 16.3654V8.68808C1.40564 8.32784 1.48715 7.97226 1.64415 7.64803C1.80114 7.3238 2.02953 7.03934 2.31217 6.81599L8.51528 1.91915Z" fill="#1C1B1F"/>
<path d="M9.9933 0C10.8459 0 11.6734 0.287404 12.3425 0.815736L18.5447 5.71228C18.9941 6.06718 19.3578 6.51955 19.6075 7.03492C19.8571 7.55014 19.9865 8.11519 19.9866 8.68769V16.3658C19.9865 17.3712 19.5868 18.3353 18.8759 19.0463C18.1649 19.7571 17.2009 20.157 16.1954 20.157H3.79115C2.78571 20.157 1.82172 19.7571 1.11072 19.0463C0.399802 18.3353 0.000117868 17.3712 0 16.3658V8.68769C4.38067e-05 8.11519 0.129502 7.55014 0.379115 7.03492C0.628829 6.51955 0.992454 6.06718 1.44191 5.71228L7.64406 0.815736C8.31322 0.287403 9.1407 2.337e-07 9.9933 0ZM9.9933 0.45153C9.24225 0.45153 8.51313 0.70469 7.92369 1.17012L1.72154 6.06696C1.32564 6.37957 1.00569 6.77781 0.785735 7.23177C0.565776 7.68574 0.451515 8.18363 0.45153 8.68808V16.3654C0.45153 17.2511 0.803382 18.1006 1.42968 18.7269C2.05598 19.3532 2.90543 19.705 3.79115 19.705H16.1954C17.0812 19.705 17.9306 19.3532 18.5569 18.7269C19.1832 18.1006 19.5351 17.2511 19.5351 16.3654V8.68808C19.5351 8.18363 19.4208 7.68574 19.2009 7.23177C18.9809 6.77781 18.661 6.37957 18.2651 6.06696L12.0629 1.17012C11.4735 0.70469 10.7443 0.45153 9.9933 0.45153ZM9.9933 1.40609C10.5296 1.40609 11.0503 1.58683 11.4713 1.91915L17.6735 6.81599C17.9563 7.03924 18.1849 7.32366 18.342 7.6479C18.4992 7.97214 18.5808 8.32776 18.5809 8.68808V16.3654C18.5809 16.998 18.3296 17.6048 17.8822 18.0521C17.4349 18.4995 16.8281 18.7508 16.1954 18.7508H3.79115C3.15849 18.7508 2.55174 18.4995 2.10439 18.0521C1.65703 17.6048 1.40571 16.998 1.40571 16.3654V8.68808C1.40564 8.32784 1.48715 7.97226 1.64415 7.64803C1.80114 7.3238 2.02953 7.03934 2.31217 6.81599L8.51528 1.91915C8.93626 1.58683 9.45695 1.40609 9.9933 1.40609ZM9.9933 1.8583C9.55857 1.8583 9.13649 2.00429 8.79525 2.27362L2.59204 7.17017C2.36293 7.35122 2.17831 7.58251 2.05105 7.84533C1.92391 8.10801 1.85722 8.39586 1.85724 8.68769V16.3658C1.85735 16.8785 2.06125 17.3707 2.42378 17.7332C2.78639 18.0957 3.27841 18.2987 3.79115 18.2987H16.1954C16.7082 18.2987 17.2002 18.0957 17.5628 17.7332C17.9253 17.3707 18.1292 16.8785 18.1294 16.3658V8.68769C18.1293 8.39589 18.0628 8.10794 17.9355 7.84533C17.8081 7.5825 17.6227 7.35114 17.3935 7.17017L11.1913 2.27362C10.8501 2.00429 10.428 1.8583 9.9933 1.8583Z" fill="#1C1B1F"/>
</svg>
