<svg width="22" height="22" viewBox="0 0 22 22" fill="none" xmlns="http://www.w3.org/2000/svg">
<path d="M3.96338 16.6413C4.91962 15.9318 5.96138 15.3714 7.08862 14.9603C8.21569 14.5493 9.41531 14.3438 10.6875 14.3438C11.9597 14.3438 13.1593 14.5493 14.2864 14.9603C15.4136 15.3714 16.4554 15.9318 17.4116 16.6413C18.111 15.8725 18.6652 14.9827 19.0741 13.9717C19.483 12.9607 19.6875 11.8659 19.6875 10.6875C19.6875 8.19375 18.8109 6.07031 17.0578 4.31719C15.3047 2.56406 13.1812 1.6875 10.6875 1.6875C8.19375 1.6875 6.07031 2.56406 4.31719 4.31719C2.56406 6.07031 1.6875 8.19375 1.6875 10.6875C1.6875 11.8659 1.89197 12.9607 2.30091 13.9717C2.70984 14.9827 3.264 15.8725 3.96338 16.6413ZM8.08931 10.4732C7.38394 9.768 7.03125 8.90194 7.03125 7.875C7.03125 6.84806 7.38394 5.982 8.08931 5.27681C8.7945 4.57144 9.66056 4.21875 10.6875 4.21875C11.7144 4.21875 12.5805 4.57144 13.2857 5.27681C13.9911 5.982 14.3438 6.84806 14.3438 7.875C14.3438 8.90194 13.9911 9.768 13.2857 10.4732C12.5805 11.1786 11.7144 11.5312 10.6875 11.5312C9.66056 11.5312 8.7945 11.1786 8.08931 10.4732ZM10.6875 21.375C9.20344 21.375 7.81125 21.0959 6.51094 20.5377C5.21062 19.9795 4.07953 19.2194 3.11766 18.2573C2.15559 17.2955 1.39547 16.1644 0.837281 14.8641C0.279094 13.5638 0 12.1716 0 10.6875C0 9.20344 0.279094 7.81125 0.837281 6.51094C1.39547 5.21062 2.15559 4.07953 3.11766 3.11766C4.07953 2.15559 5.21062 1.39547 6.51094 0.837282C7.81125 0.279094 9.20344 0 10.6875 0C12.1716 0 13.5638 0.279094 14.8641 0.837282C16.1644 1.39547 17.2955 2.15559 18.2573 3.11766C19.2194 4.07953 19.9795 5.21062 20.5377 6.51094C21.0959 7.81125 21.375 9.20344 21.375 10.6875C21.375 12.1716 21.0959 13.5638 20.5377 14.8641C19.9795 16.1644 19.2194 17.2955 18.2573 18.2573C17.2955 19.2194 16.1644 19.9795 14.8641 20.5377C13.5638 21.0959 12.1716 21.375 10.6875 21.375ZM13.6243 19.1976C14.5669 18.8708 15.4038 18.4139 16.135 17.827C15.4038 17.2615 14.5778 16.8209 13.6569 16.5052C12.7359 16.1892 11.7461 16.0312 10.6875 16.0312C9.62887 16.0312 8.63728 16.1873 7.71272 16.4995C6.78816 16.8119 5.96391 17.2544 5.23997 17.827C5.97122 18.4139 6.80812 18.8708 7.75069 19.1976C8.69325 19.5242 9.67219 19.6875 10.6875 19.6875C11.7028 19.6875 12.6817 19.5242 13.6243 19.1976ZM12.0915 9.279C12.468 8.90269 12.6562 8.43469 12.6562 7.875C12.6562 7.31531 12.468 6.84731 12.0915 6.471C11.7152 6.0945 11.2472 5.90625 10.6875 5.90625C10.1278 5.90625 9.65981 6.0945 9.2835 6.471C8.907 6.84731 8.71875 7.31531 8.71875 7.875C8.71875 8.43469 8.907 8.90269 9.2835 9.279C9.65981 9.6555 10.1278 9.84375 10.6875 9.84375C11.2472 9.84375 11.7152 9.6555 12.0915 9.279Z" fill="#1C1B1F"/>
</svg>
