<svg width="11" height="10" viewBox="0 0 11 10" fill="none" xmlns="http://www.w3.org/2000/svg">
<path d="M7.08127 9.46875C7.62711 9.23125 8.10211 8.91042 8.50627 8.50625C8.91044 8.10208 9.23127 7.62708 9.46877 7.08125C9.70627 6.53542 9.82502 5.95 9.82502 5.325C9.82502 4.7 9.70627 4.11458 9.46877 3.56875C9.23127 3.02292 8.91044 2.54792 8.50627 2.14375C8.10211 1.73958 7.62711 1.41875 7.08127 1.18125C6.53544 0.94375 5.95002 0.825 5.32502 0.825C4.70002 0.825 4.11461 0.94375 3.56877 1.18125C3.02294 1.41875 2.54794 1.73958 2.14377 2.14375C1.73961 2.54792 1.41877 3.02292 1.18127 3.56875C0.943773 4.11458 0.825024 4.7 0.825024 5.325C0.825024 5.95 0.943773 6.53542 1.18127 7.08125C1.41877 7.62708 1.73961 8.10208 2.14377 8.50625C2.54794 8.91042 3.02294 9.23125 3.56877 9.46875C4.11461 9.70625 4.70002 9.825 5.32502 9.825C5.95002 9.825 6.53544 9.70625 7.08127 9.46875ZM3.92502 7.425L3.22502 6.725L4.82502 5.125V2.825H5.82502V5.525L3.92502 7.425ZM8.52502 0L7.82502 0.7L9.95002 2.825L10.65 2.125L8.52502 0ZM2.12502 0L2.38419e-05 2.125L0.700024 2.825L2.82502 0.7L2.12502 0Z" fill="white"/>
</svg>
