<svg width="20" height="20" viewBox="0 0 20 20" fill="none" xmlns="http://www.w3.org/2000/svg">
<path d="M4.81332 19.5185V17.7963H8.89815V13.8616C7.92375 13.6658 7.06264 13.2559 6.31482 12.6319C5.56699 12.0077 5.03559 11.2297 4.72061 10.298C3.39584 10.1405 2.27793 9.57823 1.36687 8.61111C0.455623 7.64399 0 6.49584 0 5.16667V4.01852C0 3.54893 0.169639 3.14449 0.508917 2.80521C0.848194 2.46593 1.25263 2.2963 1.72222 2.2963H4.39396V0H15.1246V2.2963H17.7963C18.2659 2.2963 18.6703 2.46593 19.0096 2.80521C19.3489 3.14449 19.5185 3.54893 19.5185 4.01852V5.16667C19.5185 6.49584 19.0629 7.64399 18.1516 8.61111C17.2406 9.57823 16.1227 10.1405 14.7979 10.298C14.4829 11.2297 13.9515 12.0077 13.2037 12.6319C12.4559 13.2559 11.5948 13.6658 10.6204 13.8616V17.7963H14.7052V19.5185H4.81332ZM4.39396 8.44779V4.01852H1.72222V5.16667C1.72222 5.9675 1.97319 6.67074 2.47512 7.27639C2.97705 7.88204 3.61667 8.2725 4.39396 8.44779ZM12.3259 11.1557C13.0288 10.4528 13.3802 9.59727 13.3802 8.58901V1.72222H6.13829V8.58901C6.13829 9.59727 6.48972 10.4528 7.19257 11.1557C7.89543 11.8587 8.75099 12.2103 9.75926 12.2103C10.7675 12.2103 11.6231 11.8587 12.3259 11.1557ZM15.1246 8.44779C15.9019 8.2725 16.5415 7.88204 17.0434 7.27639C17.5453 6.67074 17.7963 5.9675 17.7963 5.16667V4.01852H15.1246V8.44779Z" fill="#1C1B1F"/>
</svg>
